# AST/ASF file generated using VICON BodyLanguage
# -----------------------------------------------
:version 1.10
:name VICON
:units
  mass 1.0
  length 0.45
  angle deg
:documentation
   .ast/.asf automatically generated from VICON data using
   VICON BodyBuilder and BodyLanguage model FoxedUp or BRILLIANT.MOD
:root
   order TX TY TZ RX RY RZ
   axis XYZ
   position 0 0 0  
   orientation 0 0 0 
:bonedata
  begin
     id 1 
     name lhipjoint
     direction 0.627412 -0.730575 0.26947 
     length 2.49821 
     axis 0 0 0  XYZ
  end
  begin
     id 2 
     name lfemur
     direction 0.34202 -0.939693 0  
     length 6.89165  
     axis 0 0 20  XYZ
    dof rx ry rz
    limits (-160.0 20.0)
           (-70.0 70.0)
           (-60.0 70.0)
  end
  begin
     id 3 
     name ltibia
     direction 0.34202 -0.939693 0   
     length 7.91287   
     axis 0 0 20   XYZ
    dof rx
    limits (-10.0 170.0)
  end
  begin
     id 4 
     name lfoot
     direction 0.0941675 -0.258723 0.96135   
     length 2.16919   
     axis -90 7.62852e-016 20   XYZ
    dof rx rz
    limits (-45.0 90.0)
           (-70.0 20.0)
  end
  begin
     id 5 
     name ltoes
     direction 1.5347e-011 -4.21941e-011 1   
     length 1.08535   
     axis -90 7.62852e-016 20   XYZ
    dof rx
    limits (-90.0 20.0)
  end
  begin
     id 6 
     name rhipjoint
     direction -0.614241 -0.740361 0.27308   
     length 2.46519  
     axis 0 0 0  XYZ 
  end
  begin
     id 7 
     name rfemur
     direction -0.34202 -0.939693 0   
     length 7.27512   
     axis 0 0 -20   XYZ
    dof rx ry rz
    limits (-160.0 20.0)
           (-70.0 70.0)
           (-70.0 60.0)
  end
  begin
     id 8 
     name rtibia
     direction -0.34202 -0.939693 0   
     length 7.89523   
     axis 0 0 -20   XYZ
    dof rx
    limits (-10.0 170.0)
 end
 begin
     id 9 
     name rfoot
     direction -0.0860444 -0.236405 0.967837   
     length 2.29534  
     axis -90 -7.62852e-016 -20   XYZ
    dof rx rz
    limits (-45.0 90.0)
           (-20.0 70.0)
  end
  begin
     id 10 
     name rtoes
     direction -1.53608e-011 -4.21861e-011 1   
     length 1.14915   
     axis -90 -7.62852e-016 -20   XYZ
    dof rx
    limits (-90.0 20.0)
  end
  begin
     id 11 
     name lowerback
     direction -0.00734074 0.997215 -0.0742143   
     length 2.13469   
     axis 0 0 0   XYZ
    dof rx ry rz
    limits (-20.0 45.0)
           (-30.0 30.0)
           (-30.0 30.0)
  end
  begin
     id 12 
     name upperback
     direction 0.0285728 0.99958 -0.00488656   
     length 2.13416   
     axis 0 0 0   XYZ
    dof rx ry rz
    limits (-20.0 45.0)
           (-30.0 30.0)
           (-30.0 30.0)
  end
  begin
     id 13 
     name thorax
     direction 0.0316844 0.999056 0.0297249   
     length 2.14463   
     axis 0 0 0   XYZ
    dof rx ry rz
    limits (-20.0 45.0)
           (-30.0 30.0)
           (-30.0 30.0)
  end
  begin
     id 14 
     name lowerneck
     direction -0.0281545 0.996802 0.0747864   
     length 1.79004   
     axis 0 0 0   XYZ
    dof rx ry rz
    limits (-20.0 45.0)
           (-30.0 30.0)
           (-30.0 30.0)
  end
  begin
     id 15 
     name upperneck
     direction -0.00100185 0.982732 -0.185031   
     length 1.79988   
     axis 0 0 0   XYZ
    dof rx ry rz
    limits (-20.0 45.0)
           (-30.0 30.0)
           (-30.0 30.0)
  end
  begin
     id 16
     name head
     direction 0.00403747 0.997539 -0.0700022  
     length 1.81696  
     axis 0 0 0   XYZ
    dof rx ry rz
    limits (-20.0 45.0)
           (-30.0 30.0)
           (-30.0 30.0)
  end
  begin
     id 17 
     name lclavicle
     direction 0.959882 0.242905 -0.140082  
     length 3.87755  
     axis 0 0 0   XYZ
    dof ry rz
    limits (-20.0 10.0)
           (0.0 20.0)
  end
  begin
     id 18 
     name lhumerus
     direction 1 -4.4895e-011 3.76166e-027   
     length 5.14601   
     axis 180 -30 -90   XYZ
    dof rx ry rz
    limits (-60.0 90.0)
           (-90.0 90.0)
           (-90.0 90.0)
  end
  begin
     id 19
     name lradius
     direction 1 -4.48966e-011 -3.24039e-027   
     length 3.64452   
     axis 180 -30 -90   XYZ
    dof rx
    limits (-10.0 170.0)
  end
  begin
     id 20
     name lwrist
     direction 1 -4.48999e-011 2.57119e-027   
     length 1.82226   
     axis -1.61769e-015 90 90   XYZ
    dof ry
    limits (-180.0 0.0)
 end
  begin
     id 21 
     name lhand
     direction 1 -4.48961e-011 5.13984e-027   
     length 0.56228   
     axis -3.27988e-015 90 90   XYZ
    dof rx rz
    limits (-90.0 90.0)
           (-45.0 45.0)
  end
  begin
     id 22 
     name lfingers
     direction 1 -4.48991e-011 1.02836e-026   
     length 0.453325   
     axis -6.5598e-015 90 90   XYZ
    dof rx
    limits (0.0 90.0)
  end
  begin
     id 23
     name lthumb
     direction 0.707107 -6.34956e-011 0.707107   
     length 0.650886   
     axis -90 45 2.19363e-014   XYZ
    dof rx rz
    limits (-45.0 45.0)
           (-45.0 45.0)
  end
  begin
     id 24 
     name rclavicle
     direction -0.929201 0.345171 -0.132073   
     length 3.55416  
     axis 0 0 0   XYZ 
    dof ry rz
    limits (-10.0 20.0)
           (-20.0 0.0)
  end
  begin
     id 25 
     name rhumerus
     direction -1 -4.48979e-011 4.53734e-027  
     length 5.33913   
     axis 180 30 90   XYZ
    dof rx ry rz
    limits (-90.0 60.0)
           (-90.0 90.0)
           (-90.0 90.0)
  end
  begin
     id 26 
     name rradius
     direction -1 -4.4896e-011 -2.24007e-027   
     length 3.56478   
     axis 180 30 90   XYZ
    dof rx
    limits (-10.0 170.0)
  end
  begin
     id 27 
     name rwrist
     direction -1 -4.48923e-011 2.56866e-027   
     length 1.78239   
     axis -1.61769e-015 -90 -90   XYZ
    dof ry
    limits (-180.0 0.0)
  end
  begin
     id 28
     name rhand
     direction -1 -4.48914e-011 5.13667e-027   
     length 0.857474   
     axis -3.27988e-015 -90 -90   XYZ
    dof rx rz
    limits (-90.0 90.0)
           (-45.0 45.0)
  end
  begin
     id 29
     name rfingers
     direction -1 -4.49112e-011 1.02998e-026   
     length 0.691318   
     axis -6.5598e-015 -90 -90   XYZ
    dof rx
    limits (0.0 90.0)
  end
  begin
     id 30
     name rthumb
     direction -0.707107 -6.34979e-011 0.707107   
     length 0.992598   
     axis -90 -45 -2.19363e-014   XYZ
    dof rx rz
    limits (-45.0 45.0)
           (-45.0 45.0)
  end
:hierarchy
  begin
    root lhipjoint rhipjoint lowerback
    lhipjoint lfemur
    lfemur ltibia
    ltibia lfoot
    lfoot ltoes
    rhipjoint rfemur
    rfemur rtibia
    rtibia rfoot
    rfoot rtoes
    lowerback upperback
    upperback thorax
    thorax lowerneck lclavicle rclavicle
    lowerneck upperneck
    upperneck head
    lclavicle lhumerus
    lhumerus lradius
    lradius lwrist
    lwrist lhand lthumb
    lhand lfingers
    rclavicle rhumerus
    rhumerus rradius
    rradius rwrist
    rwrist rhand rthumb
    rhand rfingers
  end

#!OML:ASF F:\VICON\USERDATA\INSTALL\Justin4\Justin4.ASF
:FULLY-SPECIFIED
:DEGREES
1305
root -6.15545 16.8481 9.33172 6.6718 -0.159065 2.76108
lowerback 21.3244 0.671858 -2.14914
upperback 5.19246 0.523427 1.44115
thorax -6.2822 0.28327 2.64676
lowerneck -12.2875 1.52115 -3.11397
upperneck 8.70526 2.66218 -0.774509
head 4.58571 1.15188 0.460057
rclavicle 0 -1.59028e-015
rhumerus -9.80877 -5.80185 -76.417
rradius 134.963
rwrist -5.37578
rhand -14.1602 19.6224
rfingers 7.12502
rthumb 11.9747 -10.0151
lclavicle 0 -1.59028e-015
lhumerus 4.64152 8.04845 80.1845
lradius 133.412
lwrist 12.6434
lhand -7.4613 11.597
lfingers 7.12502
lthumb 18.4271 40.7442
rfemur -37.9549 -6.87297 2.40971
rtibia 71.865
rfoot -6.09417 9.0276
rtoes -10.8544
lfemur -26.3422 9.33103 -0.973114
ltibia 50.11
lfoot -2.5099 -3.3601
ltoes -28.8224
1306
root -6.13776 16.8026 9.33376 6.23232 0.656034 2.33054
lowerback 21.4185 0.700886 -1.70711
upperback 5.14175 0.634447 1.14692
thorax -6.38669 0.333382 2.04601
lowerneck -12.493 1.18697 -3.44487
upperneck 9.0939 2.21235 -0.13793
head 4.73342 0.9537 0.681609
rclavicle 5.56597e-015 7.55382e-015
rhumerus -10.6807 -6.15126 -77.2502
rradius 135.105
rwrist -5.23885
rhand -14.8181 20.592
rfingers 7.12502
rthumb 11.3402 -9.08141
lclavicle 5.56597e-015 7.55382e-015
lhumerus 5.33489 7.45677 79.8091
lradius 131.572
lwrist 9.16144
lhand -10.676 7.54427
lfingers 7.12502
lthumb 15.3326 36.9558
rfemur -36.5131 -8.14795 3.96648
rtibia 74.4487
rfoot -4.97886 10.7313
rtoes -10.4414
lfemur -25.89 7.53148 0.424798
ltibia 46.9986
lfoot -2.10875 -4.11708
ltoes -31.4514
1307
root -6.11081 16.7451 9.33953 5.66689 1.3699 1.98527
lowerback 21.6235 0.760768 -1.26071
upperback 5.0973 0.781944 0.805487
thorax -6.53944 0.400072 1.38155
lowerneck -12.4365 0.872496 -3.61085
upperneck 9.22521 1.779 0.197994
head 4.76721 0.755489 0.780517
rclavicle 4.77083e-015 -3.18055e-015
rhumerus -11.588 -6.44563 -78.0243
rradius 135.16
rwrist -4.79892
rhand -14.601 20.5146
rfingers 7.12502
rthumb 11.5495 -9.14722
lclavicle 4.77083e-015 -3.18055e-015
lhumerus 6.02054 7.07339 79.4772
lradius 130.791
lwrist 7.9775
lhand -11.6044 6.73231
lfingers 7.12502
lthumb 14.4382 36.2101
rfemur -34.678 -9.26409 5.33933
rtibia 76.2963
rfoot -3.83511 12.8091
rtoes -10.5509
lfemur -25.2473 5.66793 1.64616
ltibia 44.066
lfoot -2.05337 -4.59392
ltoes -33.2588
1308
root -6.07765 16.6731 9.35482 5.1112 2.02091 1.75856
lowerback 21.7215 0.814522 -0.938048
upperback 5.01632 0.898185 0.486724
thorax -6.67305 0.452322 0.820232
lowerneck -12.2067 0.60398 -4.11725
upperneck 9.42577 1.43358 0.741133
head 4.79031 0.600946 1.0048
rclavicle -9.14409e-015 5.96354e-015
rhumerus -12.6456 -6.50171 -78.5425
rradius 135.009
rwrist -3.68578
rhand -15.3003 21.0168
rfingers 7.12502
rthumb 10.8751 -8.68165
lclavicle -9.14409e-015 5.96354e-015
lhumerus 6.40339 7.00681 79.216
lradius 130.696
lwrist 8.33941
lhand -12.3475 5.98783
lfingers 7.12502
lthumb 13.7221 35.5154
rfemur -32.5176 -10.3519 6.50792
rtibia 77.5048
rfoot -3.43558 14.9792
rtoes -11.5251
lfemur -24.6643 3.94237 2.60774
ltibia 41.5537
lfoot -1.52223 -4.43761
ltoes -33.269
1309
root -6.04404 16.588 9.37167 4.76718 2.52141 1.34838
lowerback 21.5203 0.907678 -0.556124
upperback 4.89575 1.08815 0.265961
thorax -6.69231 0.538428 0.313975
lowerneck -12.2498 0.326906 -4.86338
upperneck 9.99212 1.10037 1.53083
head 4.97254 0.454774 1.35024
rclavicle -3.57812e-015 5.56597e-015
rhumerus -13.6051 -6.54447 -78.8909
rradius 135.247
rwrist -3.21598
rhand -15.8345 21.2365
rfingers 7.12502
rthumb 10.3598 -8.4883
lclavicle -3.57812e-015 5.56597e-015
lhumerus 6.84049 7.09876 79.0162
lradius 130.609
lwrist 9.11617
lhand -13.6258 4.21821
lfingers 7.12502
lthumb 12.4899 33.825
rfemur -30.7048 -11.1874 8.00231
rtibia 77.8556
rfoot -3.1449 16.7507
rtoes -10.4347
lfemur -24.4213 2.76082 3.64909
ltibia 39.6602
lfoot -0.524181 -3.73941
ltoes -32.4671
1310
root -5.99982 16.4896 9.3941 4.70678 2.88654 1.24055
lowerback 20.9156 1.03897 -0.459784
upperback 4.76943 1.26139 -0.0301265
thorax -6.50577 0.620433 -0.0979698
lowerneck -12.3696 0.0625676 -5.54249
upperneck 10.5448 0.785485 2.21692
head 5.169 0.314109 1.65531
rclavicle -8.54774e-015 -3.57812e-015
rhumerus -14.3564 -6.5833 -79.1986
rradius 135.796
rwrist -3.33774
rhand -15.7748 21.1521
rfingers 7.12502
rthumb 10.4174 -8.56978
lclavicle -8.54774e-015 -3.57812e-015
lhumerus 7.43449 7.25029 78.8748
lradius 130.368
lwrist 9.49213
lhand -13.8466 3.73158
lfingers 7.12502
lthumb 12.2771 33.3512
rfemur -28.9312 -12.0713 9.0972
rtibia 77.6346
rfoot -4.20315 17.9576
rtoes -11.4014
lfemur -24.5178 2.08928 4.16914
ltibia 38.6181
lfoot -0.364605 -2.86205
ltoes -32.2653
1311
root -5.95305 16.3951 9.42202 4.8247 3.20426 1.45303
lowerback 20.1162 1.14978 -0.723555
upperback 4.62308 1.3335 -0.366097
thorax -6.24147 0.659086 -0.314111
lowerneck -12.1435 -0.0460188 -6.10179
upperneck 10.5795 0.674565 2.60285
head 5.14331 0.262774 1.85761
rclavicle 6.95746e-016 -2.78299e-015
rhumerus -14.7411 -6.47832 -79.4859
rradius 136.123
rwrist -3.52629
rhand -15.6351 21.2784
rfingers 7.12502
rthumb 10.5521 -8.43666
lclavicle 6.95746e-016 -2.78299e-015
lhumerus 7.97267 7.59235 78.6906
lradius 130.31
lwrist 9.90547
lhand -12.919 5.28727
lfingers 7.12502
lthumb 13.1713 34.8512
rfemur -27.0739 -12.9351 9.8647
rtibia 76.7452
rfoot -6.24539 17.9262
rtoes -13.9284
lfemur -24.9026 1.85544 4.17038
ltibia 38.5471
lfoot -2.32842 -2.81999
ltoes -36.7573
1312
root -5.90862 16.3039 9.44983 5.01311 3.4583 1.66995
lowerback 19.3609 1.25516 -1.02309
upperback 4.41578 1.39946 -0.661729
thorax -6.06511 0.695145 -0.463687
lowerneck -11.7895 -0.0565326 -6.54981
upperneck 10.3948 0.693819 2.76832
head 5.02416 0.266593 1.98026
rclavicle 5.66536e-015 9.14409e-015
rhumerus -14.9063 -6.29276 -79.668
rradius 136.295
rwrist -3.82417
rhand -15.1017 20.7544
rfingers 7.12502
rthumb 11.0666 -8.93381
lclavicle 5.66536e-015 9.14409e-015
lhumerus 8.26278 7.84091 78.4447
lradius 129.843
lwrist 8.65654
lhand -13.429 4.63896
lfingers 7.12502
lthumb 12.6796 34.234
rfemur -25.2724 -13.6676 10.7293
rtibia 75.4535
rfoot -9.73564 15.7621
rtoes -17.1078
lfemur -25.5047 1.98843 4.04896
ltibia 39.3598
lfoot -2.42788 -4.03241
ltoes -38.5716
1313
root -5.86452 16.2054 9.47236 5.30983 3.45155 1.87524
lowerback 18.4599 1.44003 -1.33333
upperback 4.25046 1.57605 -0.966994
thorax -5.76342 0.78486 -0.635933
lowerneck -11.8948 -0.104057 -6.87264
upperneck 10.6438 0.675917 2.89907
head 5.11872 0.250525 2.07497
rclavicle -1.58903e-014 -1.3418e-015
rhumerus -14.9834 -6.12843 -79.755
rradius 136.391
rwrist -3.73425
rhand -14.8717 20.52
rfingers 7.12502
rthumb 11.2885 -9.15627
lclavicle -1.58903e-014 -1.3418e-015
lhumerus 8.80293 8.25861 78.3667
lradius 130.558
lwrist 10.2201
lhand -10.8213 7.81444
lfingers 7.12502
lthumb 15.1926 37.2367
rfemur -23.8534 -14.2235 11.6025
rtibia 74.1641
rfoot -14.8577 10.8556
rtoes -21.1476
lfemur -26.221 2.79907 3.82685
ltibia 40.6905
lfoot -2.9569 -4.91941
ltoes -39.3126
1314
root -5.81886 16.0991 9.48575 5.69308 3.27687 2.17035
lowerback 17.4044 1.64917 -1.77786
upperback 4.08932 1.77073 -1.31598
thorax -5.37384 0.884788 -0.772018
lowerneck -11.9687 -0.133399 -7.13701
upperneck 10.9386 0.664125 3.07772
head 5.22205 0.242013 2.17628
rclavicle 6.21202e-016 -5.96354e-016
rhumerus -15.1314 -5.93214 -79.929
rradius 136.396
rwrist -3.2819
rhand -15.0792 20.8902
rfingers 7.12502
rthumb 11.0884 -8.79689
lclavicle 6.21202e-016 -5.96354e-016
lhumerus 9.46722 8.44311 78.2911
lradius 130.366
lwrist 10.0927
lhand -10.9542 7.59177
lfingers 7.12502
lthumb 15.0646 37.0236
rfemur -22.9267 -14.6885 12.1997
rtibia 73.2077
rfoot -19.606 4.29102
rtoes -24.5569
lfemur -27.1324 4.1801 3.43622
ltibia 42.1534
lfoot -4.26787 -6.20076
ltoes -39.9079
